<svg width="24" height="24" viewBox="0 0 24 24" fill="none" xmlns="http://www.w3.org/2000/svg">
<path fill-rule="evenodd" clip-rule="evenodd" d="M11.9918 16.941C12.0454 16.9411 12.253 16.9433 12.5647 16.9975L12.5224 17.6893C12.5082 18.0563 12.1977 18.3528 11.8306 18.3528C11.0118 18.3528 10.4471 18.5928 10.0659 19.0728C9.2047 20.174 9.50118 22.3622 9.6847 23.1245C9.74118 23.3363 9.6847 23.5622 9.55765 23.7316C9.41648 23.901 9.21883 23.9998 9.00706 23.9998H6.35294C5.95765 23.9998 5.64706 23.6893 5.64706 23.294V16.941H11.9918ZM19.8395 0.390485C19.9849 0.096835 20.3097 -0.054215 20.6329 0.017785C20.952 0.0940225 21.1765 0.377785 21.1765 0.70531V7.13025C22.7859 7.45779 24 8.88366 24 10.5877C24 12.2917 22.7859 13.719 21.1765 14.0465V20.47C21.1765 20.7975 20.952 21.0827 20.6329 21.1575C20.5797 21.1698 20.5252 21.176 20.4706 21.1759C20.2066 21.1759 19.9609 21.0291 19.8395 20.7862C17.2405 15.5895 12.0523 15.5288 12 15.5288H4.94118C2.99435 15.5288 1.41176 13.9462 1.41176 11.9994V11.2935H0.705888C0.316238 11.2935 0 10.9787 0 10.5877C0 10.198 0.316238 9.88179 0.705875 9.88179H1.41176V9.17591C1.41176 7.23049 2.99435 5.64648 4.94118 5.64648H11.9986C12.2104 5.64507 17.2546 5.55896 19.8395 0.390485Z" fill="#5E30D9"/>
</svg>
