<svg width="45" height="45" viewBox="0 0 45 45" fill="none" xmlns="http://www.w3.org/2000/svg">
<path opacity="0.4" d="M30.3563 3.75H14.6625C7.81875 3.75 3.75 7.81875 3.75 14.6437V30.3375C3.75 37.1625 7.81875 41.2312 14.6438 41.2312H30.3375C37.1625 41.2312 41.2313 37.1625 41.2313 30.3375V14.6437C41.25 7.81875 37.1813 3.75 30.3563 3.75Z" fill="#F1ECFF"/>
<path d="M26.0988 15.9001H16.4425L17.0612 15.2814C17.605 14.7376 17.605 13.8376 17.0612 13.2939C16.5175 12.7501 15.6175 12.7501 15.0737 13.2939L12.13 16.2376C11.5862 16.7814 11.5862 17.6814 12.13 18.2251L15.0737 21.1689C15.355 21.4502 15.7112 21.5814 16.0675 21.5814C16.4237 21.5814 16.78 21.4502 17.0612 21.1689C17.605 20.6252 17.605 19.7252 17.0612 19.1814L16.5737 18.6939H26.0988C28.4988 18.6939 30.4676 20.6439 30.4676 23.0627C30.4676 25.4814 28.5174 27.4314 26.0988 27.4314H16.8737C16.105 27.4314 15.4675 28.0689 15.4675 28.8377C15.4675 29.6064 16.105 30.2439 16.8737 30.2439H26.0988C30.0551 30.2439 33.2801 27.0189 33.2801 23.0627C33.2801 19.1064 30.0551 15.9001 26.0988 15.9001Z" fill="#5E30D9"/>
</svg>
