<svg width="26" height="26" viewBox="0 0 26 26" fill="none" xmlns="http://www.w3.org/2000/svg">
<path d="M25.1821 0.995785C24.6398 0.453472 23.7605 0.453472 23.2183 0.995785L13.0888 11.1252L2.95946 0.995785C2.41716 0.453472 1.5379 0.453472 0.995602 0.995785C0.453289 1.53808 0.453289 2.41734 0.995602 2.95964L11.125 13.0891L0.99563 23.2184C0.453317 23.7608 0.453317 24.6399 0.99563 25.1823C1.53793 25.7246 2.41719 25.7246 2.95949 25.1823L13.0888 15.0529L23.2183 25.1823C23.7605 25.7246 24.6398 25.7246 25.1821 25.1823C25.7244 24.6399 25.7244 23.7608 25.1821 23.2185L15.0527 13.0891L25.1821 2.95964C25.7244 2.41734 25.7244 1.53808 25.1821 0.995785Z" fill="#0F0F0F"/>
</svg>
