<svg width="30" height="30" viewBox="0 0 25 25" fill="none" xmlns="http://www.w3.org/2000/svg">
<path d="M10.4482 9.34344C10.1431 9.03835 9.64842 9.03835 9.34332 9.34344C9.03823 9.64854 9.03823 10.1432 9.34332 10.4483L11.3951 12.5L9.34334 14.5518C9.03825 14.8569 9.03825 15.3515 9.34334 15.6566C9.64844 15.9617 10.1431 15.9617 10.4482 15.6566L12.4999 13.6049L14.5516 15.6566C14.8567 15.9617 15.3514 15.9617 15.6565 15.6566C15.9616 15.3515 15.9616 14.8568 15.6565 14.5518L13.6047 12.5L15.6565 10.4483C15.9616 10.1432 15.9616 9.64856 15.6565 9.34347C15.3514 9.03837 14.8567 9.03837 14.5516 9.34347L12.4999 11.3952L10.4482 9.34344Z" fill="#5E30D9"/>
<path fill-rule="evenodd" clip-rule="evenodd" d="M12.5597 1.30212H12.4401C10.0356 1.30211 8.15116 1.3021 6.68087 1.49978C5.17593 1.70211 3.98841 2.12434 3.05631 3.05644C2.12422 3.98853 1.70199 5.17605 1.49966 6.68099C1.30198 8.15128 1.30199 10.0357 1.302 12.4403V12.5598C1.30199 14.9644 1.30198 16.8488 1.49966 18.3191C1.70199 19.824 2.12422 21.0116 3.05631 21.9437C3.98841 22.8758 5.17593 23.298 6.68087 23.5004C8.15116 23.698 10.0356 23.698 12.4401 23.698H12.5597C14.9643 23.698 16.8487 23.698 18.319 23.5004C19.8239 23.298 21.0115 22.8758 21.9436 21.9437C22.8757 21.0116 23.2978 19.824 23.5002 18.3191C23.6978 16.8488 23.6978 14.9644 23.6978 12.5598V12.4403C23.6978 10.0357 23.6978 8.15128 23.5002 6.68099C23.2978 5.17605 22.8757 3.98853 21.9436 3.05644C21.0115 2.12434 19.8239 1.70211 18.319 1.49978C16.8487 1.3021 14.9643 1.30211 12.5597 1.30212ZM4.16117 4.16129C4.75455 3.5679 5.55739 3.22738 6.88907 3.04834C8.24321 2.86628 10.0226 2.86462 12.4999 2.86462C14.9772 2.86462 16.7566 2.86628 18.1108 3.04834C19.4424 3.22738 20.2452 3.5679 20.8387 4.16129C21.4321 4.75468 21.7726 5.55751 21.9516 6.88919C22.1337 8.24333 22.1353 10.0227 22.1353 12.5C22.1353 14.9773 22.1337 16.7567 21.9516 18.1109C21.7726 19.4425 21.4321 20.2454 20.8387 20.8388C20.2452 21.4322 19.4424 21.7728 18.1108 21.9517C16.7566 22.1338 14.9772 22.1355 12.4999 22.1355C10.0226 22.1355 8.24321 22.1338 6.88907 21.9517C5.55739 21.7728 4.75455 21.4322 4.16117 20.8388C3.56777 20.2454 3.22726 19.4425 3.04822 18.1109C2.86616 16.7567 2.8645 14.9773 2.8645 12.5C2.8645 10.0227 2.86616 8.24333 3.04822 6.88919C3.22726 5.55751 3.56777 4.75468 4.16117 4.16129Z" fill="#5E30D9"/>
</svg>
