<svg width="24" height="24" viewBox="0 0 24 24" fill="none" xmlns="http://www.w3.org/2000/svg">
<path fill-rule="evenodd" clip-rule="evenodd" d="M9.52131 10.0805H6.79875C6.39926 10.0772 6.01482 10.2327 5.73001 10.5129C5.44519 10.793 5.28332 11.1748 5.28003 11.5742V17.2277C5.28742 18.0592 5.96724 18.7275 6.79875 18.7205H9.52131C9.92077 18.7238 10.3052 18.5683 10.5901 18.2882C10.8749 18.0081 11.0368 17.6263 11.04 17.2267V11.5742C11.0368 11.1748 10.8749 10.793 10.5901 10.5129C10.3052 10.2327 9.92077 10.0772 9.52131 10.0805Z" stroke="#3F3F3F" stroke-width="1.44" stroke-linecap="round" stroke-linejoin="round"/>
<path fill-rule="evenodd" clip-rule="evenodd" d="M9.52131 4.32057H6.79875C5.98396 4.29797 5.3046 4.93912 5.28003 5.75385V6.72729C5.3046 7.54203 5.98396 8.18318 6.79875 8.16057H9.52131C10.3361 8.18318 11.0155 7.54203 11.04 6.72729V5.75385C11.0155 4.93912 10.3361 4.29797 9.52131 4.32057Z" stroke="#3F3F3F" stroke-width="1.44" stroke-linecap="round" stroke-linejoin="round"/>
<path fill-rule="evenodd" clip-rule="evenodd" d="M14.4787 12.9607H17.2003C17.5999 12.9642 17.9846 12.8088 18.2696 12.5287C18.5546 12.2484 18.7167 11.8666 18.72 11.4669V5.81439C18.7167 5.41492 18.5548 5.03311 18.27 4.75297C17.9852 4.47283 17.6007 4.31731 17.2012 4.32063H14.4787C14.0792 4.31731 13.6947 4.47283 13.4099 4.75297C13.1251 5.03311 12.9632 5.41492 12.96 5.81439V11.4669C12.9632 11.8664 13.1251 12.2482 13.4099 12.5283C13.6947 12.8084 14.0792 12.9639 14.4787 12.9607Z" stroke="#3F3F3F" stroke-width="1.44" stroke-linecap="round" stroke-linejoin="round"/>
<path fill-rule="evenodd" clip-rule="evenodd" d="M14.4787 18.7206H17.2003C18.0154 18.7437 18.6954 18.1024 18.72 17.2873V16.3139C18.6954 15.4991 18.016 14.858 17.2012 14.8806H14.4787C13.6639 14.858 12.9845 15.4991 12.96 16.3139V17.2863C12.984 18.1015 13.6635 18.7431 14.4787 18.7206Z" stroke="#3F3F3F" stroke-width="1.44" stroke-linecap="round" stroke-linejoin="round"/>
</svg>
