<svg width="22" height="22" viewBox="0 0 22 22" fill="none" xmlns="http://www.w3.org/2000/svg">
<path d="M8.4 0H2.4C1.07452 0 0 1.07452 0 2.4V10.8C0 12.1255 1.07452 13.2 2.4 13.2H8.4C9.72548 13.2 10.8 12.1255 10.8 10.8V2.4C10.8 1.07452 9.72548 0 8.4 0Z" fill="#5E30D9"/>
<path d="M21.6002 0H15.6002C14.2747 0 13.2002 1.07452 13.2002 2.4V6C13.2002 7.32548 14.2747 8.4 15.6002 8.4H21.6002C22.9257 8.4 24.0002 7.32548 24.0002 6V2.4C24.0002 1.07452 22.9257 0 21.6002 0Z" fill="#5E30D9"/>
<path d="M8.4 15.6H2.4C1.07452 15.6 0 16.6745 0 18V21.6C0 22.9255 1.07452 24 2.4 24H8.4C9.72548 24 10.8 22.9255 10.8 21.6V18C10.8 16.6745 9.72548 15.6 8.4 15.6Z" fill="#5E30D9"/>
<path d="M21.6002 10.8H15.6002C14.2747 10.8 13.2002 11.8745 13.2002 13.2V21.6C13.2002 22.9255 14.2747 24 15.6002 24H21.6002C22.9257 24 24.0002 22.9255 24.0002 21.6V13.2C24.0002 11.8745 22.9257 10.8 21.6002 10.8Z" fill="#5E30D9"/>
</svg>
