<svg width="26" height="21" viewBox="0 0 26 21" fill="none" xmlns="http://www.w3.org/2000/svg">
<path d="M24.3904 0.800049C25.0585 0.800049 25.6001 1.50698 25.6001 2.379C25.6001 3.25102 25.0585 3.95794 24.3904 3.95794V0.800049ZM1.80977 3.95794C1.14171 3.95794 0.600097 3.25102 0.600097 2.379C0.600097 1.50698 1.14171 0.800049 1.80977 0.800049V3.95794ZM24.3904 9.2211C25.0585 9.2211 25.6001 9.92805 25.6001 10.8C25.6001 11.672 25.0585 12.379 24.3904 12.379V9.2211ZM5.03558 12.379C4.36752 12.379 3.8259 11.672 3.8259 10.8C3.8259 9.92805 4.36752 9.2211 5.03558 9.2211V12.379ZM24.3904 17.6422C25.0585 17.6422 25.6001 18.3491 25.6001 19.2211C25.6001 20.0931 25.0585 20.8 24.3904 20.8V17.6422ZM13.1001 20.8C12.432 20.8 11.8904 20.0931 11.8904 19.2211C11.8904 18.3491 12.432 17.6422 13.1001 17.6422V20.8ZM24.3904 3.95794H1.80977V0.800049H24.3904V3.95794ZM24.3904 12.379H5.03558V9.2211H24.3904V12.379ZM24.3904 20.8H13.1001V17.6422H24.3904V20.8Z" fill="#5E30D9"/>
</svg>
