<svg width="24" height="27" viewBox="0 0 24 27" fill="none" xmlns="http://www.w3.org/2000/svg">
<path fill-rule="evenodd" clip-rule="evenodd" d="M12.1042 6C9.19994 6 6.95462 8.19595 6.95462 10.7744V13.2188C6.95462 13.5405 6.8224 13.8248 6.7535 13.9646C6.66396 14.1463 6.54689 14.339 6.42201 14.5279C6.17043 14.9084 5.83373 15.3536 5.47499 15.8035C5.0147 16.3809 4.91669 17.0494 5.06332 17.5627C5.20264 18.0504 5.56438 18.432 6.18165 18.5344C7.73828 18.7925 9.72836 19 12.1042 19C14.6552 19 16.605 18.7608 18.0149 18.4803C18.5157 18.3806 18.8053 18.078 18.9305 17.6866C19.0642 17.2684 19.0173 16.7009 18.6806 16.1607C18.5188 15.9011 18.3449 15.6358 18.1697 15.3698C18.1518 15.3426 18.1338 15.3154 18.1159 15.2881C17.9608 15.0528 17.8046 14.8158 17.6654 14.5955C17.512 14.3526 17.3628 14.1043 17.2494 13.8776C17.1608 13.7004 17.0001 13.3623 17.0001 13V10.7119C17.0001 8.09322 14.9666 6 12.1042 6ZM4.95462 10.7744C4.95462 6.97465 8.21584 4 12.1042 4C16.0345 4 19.0001 6.95238 19.0001 10.7119V12.9017C19.0085 12.9212 19.0207 12.9481 19.0383 12.9833C19.1059 13.1185 19.2121 13.2991 19.3563 13.5274C19.4844 13.7302 19.6295 13.9503 19.7866 14.1887C19.8042 14.2155 19.822 14.2424 19.8399 14.2696C20.0149 14.5353 20.2014 14.8195 20.378 15.1029C20.9971 16.0963 21.1636 17.2698 20.8354 18.2959C20.4986 19.3489 19.6506 20.1941 18.4052 20.4418C16.8617 20.7489 14.781 21 12.1042 21C9.61165 21 7.51199 20.7823 5.85445 20.5074C4.43303 20.2717 3.47993 19.3011 3.14025 18.1121C2.8079 16.9487 3.06675 15.6159 3.91117 14.5567C4.25636 14.1238 4.55042 13.7323 4.75363 13.4249C4.8518 13.2764 4.91678 13.1655 4.95462 13.0904V10.7744ZM4.98387 13.0249C4.98387 13.0249 4.98277 13.0291 4.97888 13.0385C4.98164 13.0297 4.98387 13.0249 4.98387 13.0249ZM15.7854 22.3808C16.1273 22.8145 16.053 23.4433 15.6193 23.7852C13.5781 25.3948 10.4433 25.4152 8.38007 23.7846C7.94678 23.4421 7.87313 22.8132 8.21558 22.3799C8.55803 21.9466 9.1869 21.873 9.6202 22.2154C10.9508 23.2671 13.0603 23.2561 14.3809 22.2148C14.8146 21.8728 15.4434 21.9471 15.7854 22.3808Z" fill="#5E30D9"/>
</svg>
