<svg width="40" height="40" viewBox="0 0 40 40" fill="none" xmlns="http://www.w3.org/2000/svg">
<path fill-rule="evenodd" clip-rule="evenodd" d="M18.3625 31.6667C17.7668 31.6667 17.2587 31.2245 17.1617 30.6217C17.0723 30.134 16.73 29.7355 16.2695 29.5833C15.8943 29.4512 15.5274 29.2953 15.171 29.1167C14.7469 28.8942 14.2381 28.9275 13.845 29.2033C13.3693 29.5542 12.7157 29.4998 12.3013 29.075L10.6893 27.4217C10.2554 26.9767 10.1991 26.2752 10.556 25.7633C10.8313 25.3508 10.8709 24.819 10.66 24.3683C10.521 24.0553 10.3984 23.7348 10.2928 23.4083C10.1414 22.8938 9.72367 22.5085 9.20888 22.4083C8.58812 22.3067 8.12983 21.7598 8.12502 21.115V19.0467C8.12172 18.3035 8.64508 17.6678 9.36002 17.5467C9.90238 17.4408 10.3553 17.0598 10.5625 16.535C10.6243 16.3872 10.6893 16.2405 10.7575 16.095C11.0331 15.5507 10.9951 14.8952 10.6584 14.3883C10.2373 13.7881 10.302 12.9635 10.8111 12.44L11.9958 11.225C12.58 10.6255 13.5015 10.5479 14.1733 11.0417L14.2106 11.0683C14.7122 11.4146 15.3505 11.4773 15.9071 11.235C16.5026 11.0152 16.9415 10.4904 17.0625 9.85333L17.0788 9.79666C17.2125 8.95328 17.9227 8.33368 18.7558 8.33333H20.1858C21.0413 8.33293 21.7715 8.96761 21.9115 9.83333L21.9375 9.94999C22.0523 10.5603 22.4685 11.0654 23.036 11.2833C23.583 11.5241 24.212 11.4612 24.7033 11.1167L24.7845 11.0567C25.4737 10.5472 26.4213 10.6256 27.0222 11.2417L28.1125 12.3617C28.659 12.9253 28.7277 13.8115 28.275 14.4567C27.9203 14.9959 27.8752 15.6887 28.1563 16.2717L28.2263 16.4383C28.454 17.0075 28.9468 17.42 29.536 17.535C30.3062 17.6638 30.8725 18.3448 30.875 19.145V21C30.8748 21.7057 30.3772 22.3077 29.6985 22.4233C29.1403 22.5332 28.6857 22.9477 28.5138 23.5033C28.438 23.7255 28.3535 23.9478 28.2603 24.17C28.0435 24.6583 28.0917 25.2273 28.3872 25.67C28.777 26.2263 28.7165 26.9905 28.2442 27.475L26.7313 29.0283C26.2987 29.472 25.6163 29.5292 25.1193 29.1633C24.7043 28.8725 24.1668 28.8405 23.7218 29.08C23.4047 29.2412 23.0792 29.3842 22.7468 29.5083C22.282 29.6728 21.9393 30.0808 21.8498 30.5767C21.755 31.2005 21.2335 31.662 20.618 31.6667H18.3625Z" stroke="#5E30D9" stroke-width="2.5" stroke-linecap="round" stroke-linejoin="round"/>
<path fill-rule="evenodd" clip-rule="evenodd" d="M23.2913 20C23.2913 22.1475 21.5939 23.8883 19.5001 23.8883C17.4063 23.8883 15.709 22.1475 15.709 20C15.709 17.8525 17.4063 16.1116 19.5001 16.1116C21.5939 16.1116 23.2913 17.8525 23.2913 20Z" stroke="#5E30D9" stroke-width="2.5" stroke-linecap="round" stroke-linejoin="round"/>
</svg>
