<svg width="26" height="25" viewBox="0 0 26 25" fill="none" xmlns="http://www.w3.org/2000/svg">
<path d="M6.5 9.375L3.25 12.5L6.5 15.625" stroke="#5E30D9" stroke-width="2" stroke-linecap="round" stroke-linejoin="round"/>
<path d="M11.9167 9.375L8.66675 12.5L11.9167 15.625" stroke="#5E30D9" stroke-width="2" stroke-linecap="round" stroke-linejoin="round"/>
<path d="M8.66675 12.5H18.4167" stroke="#5E30D9" stroke-width="2" stroke-linecap="round" stroke-linejoin="round"/>
<path d="M10.8333 19.7917V20.8333C10.8333 21.1096 10.9475 21.3746 11.1506 21.5699C11.3538 21.7653 11.6293 21.875 11.9167 21.875H21.6667C21.954 21.875 22.2295 21.7653 22.4327 21.5699C22.6359 21.3746 22.75 21.1096 22.75 20.8333V4.16667C22.75 3.8904 22.6359 3.62545 22.4327 3.4301C22.2295 3.23475 21.954 3.125 21.6667 3.125H11.9167C11.6293 3.125 11.3538 3.23475 11.1506 3.4301C10.9475 3.62545 10.8333 3.8904 10.8333 4.16667V5.20833" stroke="#5E30D9" stroke-width="2" stroke-linecap="round" stroke-linejoin="round"/>
</svg>
