<svg width="24" height="24" viewBox="0 0 24 24" fill="none" xmlns="http://www.w3.org/2000/svg">
<path d="M12 10.8C13.5913 10.8 15.1174 11.4321 16.2426 12.5574C17.3679 13.6826 18 15.2087 18 16.8V24H6V16.8C6 15.2087 6.63214 13.6826 7.75736 12.5574C8.88258 11.4321 10.4087 10.8 12 10.8ZM3.9456 14.4072C3.75463 15.0513 3.64182 15.7161 3.6096 16.3872L3.6 16.8V24H1.0958e-07V18.6C-0.000236169 17.5651 0.381634 16.5665 1.07236 15.7959C1.76309 15.0252 2.71404 14.5367 3.7428 14.424L3.9456 14.4072ZM20.0544 14.4072C21.1223 14.4723 22.1251 14.9423 22.8583 15.7215C23.5915 16.5006 23.9998 17.5301 24 18.6V24H20.4V16.8C20.4 15.9684 20.28 15.1656 20.0544 14.4072ZM4.2 7.2C4.99565 7.2 5.75871 7.51607 6.32132 8.07868C6.88393 8.64129 7.2 9.40435 7.2 10.2C7.2 10.9956 6.88393 11.7587 6.32132 12.3213C5.75871 12.8839 4.99565 13.2 4.2 13.2C3.40435 13.2 2.64129 12.8839 2.07868 12.3213C1.51607 11.7587 1.2 10.9956 1.2 10.2C1.2 9.40435 1.51607 8.64129 2.07868 8.07868C2.64129 7.51607 3.40435 7.2 4.2 7.2ZM19.8 7.2C20.5957 7.2 21.3587 7.51607 21.9213 8.07868C22.4839 8.64129 22.8 9.40435 22.8 10.2C22.8 10.9956 22.4839 11.7587 21.9213 12.3213C21.3587 12.8839 20.5957 13.2 19.8 13.2C19.0044 13.2 18.2413 12.8839 17.6787 12.3213C17.1161 11.7587 16.8 10.9956 16.8 10.2C16.8 9.40435 17.1161 8.64129 17.6787 8.07868C18.2413 7.51607 19.0044 7.2 19.8 7.2ZM12 0C13.273 0 14.4939 0.505713 15.3941 1.40589C16.2943 2.30606 16.8 3.52696 16.8 4.8C16.8 6.07304 16.2943 7.29394 15.3941 8.19411C14.4939 9.09429 13.273 9.6 12 9.6C10.727 9.6 9.50606 9.09429 8.60589 8.19411C7.70571 7.29394 7.2 6.07304 7.2 4.8C7.2 3.52696 7.70571 2.30606 8.60589 1.40589C9.50606 0.505713 10.727 0 12 0Z" fill="#5E30D9"/>
</svg>
