<svg width="26" height="26" viewBox="0 0 26 26" fill="none" xmlns="http://www.w3.org/2000/svg">
<path fill-rule="evenodd" clip-rule="evenodd" d="M17.866 8.05164C17.866 11.3798 15.8555 14.236 13.1785 14.236C10.4993 14.236 8.49095 11.3798 8.49095 8.0506C8.49095 4.72351 10.2201 2.77768 13.1785 2.77768C16.1368 2.77768 17.866 4.72247 17.866 8.05164ZM4.95137 21.6756C5.35241 22.1527 7.07949 23.611 13.1785 23.611C19.2774 23.611 21.0035 22.1527 21.4055 21.6766C21.4428 21.6309 21.4704 21.578 21.4865 21.5212C21.5026 21.4644 21.507 21.405 21.4993 21.3464C21.4076 20.4277 20.5805 16.3193 13.1785 16.3193C5.77637 16.3193 4.94928 20.4277 4.85657 21.3464C4.84903 21.405 4.85355 21.4645 4.86985 21.5213C4.88615 21.5781 4.91389 21.6299 4.95137 21.6756Z" fill="#5E30D9"/>
</svg>
